<?xml version="1.0" standalone="no"?>
<!DOCTYPE svg PUBLIC "-//W3C//DTD SVG 20010904//EN"
 "http://www.w3.org/TR/2001/REC-SVG-20010904/DTD/svg10.dtd">
<svg version="1.0" xmlns="http://www.w3.org/2000/svg"
 width="500.000000pt" height="500.000000pt" viewBox="0 0 500.000000 500.000000"
 preserveAspectRatio="xMidYMid meet">
<metadata>
Created by potrace 1.16, written by Peter Selinger 2001-2019
</metadata>
<g transform="translate(0.000000,500.000000) scale(0.100000,-0.100000)"
fill="#000000" stroke="none">
<path d="M1850 3543 c-25 -9 -52 -37 -61 -60 -6 -16 -17 -23 -34 -23 -15 0
-39 -13 -58 -31 l-32 -31 -3 -716 c-1 -395 1 -799 6 -899 7 -174 9 -183 31
-202 13 -12 37 -21 53 -21 16 0 27 -4 24 -8 -6 -9 29 -42 44 -42 6 0 10 9 10
20 0 11 0 23 0 28 0 9 65 27 185 52 76 16 119 27 127 34 1 0 4 126 7 278 6
275 6 277 30 302 27 29 56 34 65 11 3 -9 6 -155 6 -325 1 -305 -4 -361 -32
-344 -6 4 -8 3 -4 -4 3 -6 -6 -13 -24 -17 -43 -9 -51 -29 -9 -20 20 4 46 20
62 38 l27 31 2 246 c1 135 2 277 3 316 0 109 -8 106 226 102 118 -2 202 -7
208 -13 7 -7 12 -129 15 -321 5 -337 8 -351 60 -383 38 -23 106 -36 106 -21 0
5 -11 10 -24 10 -39 0 -84 20 -101 46 -14 22 -15 59 -9 339 4 172 10 319 14
326 13 20 67 -20 74 -54 3 -16 6 -140 6 -276 0 -135 4 -252 9 -260 5 -7 26
-17 47 -21 22 -5 77 -18 124 -30 47 -12 95 -24 107 -27 12 -3 29 -13 38 -23
16 -17 16 -20 -2 -44 -10 -14 -23 -26 -30 -26 -17 0 -27 -20 -10 -20 20 0 100
77 92 89 -4 7 6 11 27 11 23 0 39 8 55 26 l22 26 3 817 c3 1010 4 954 -23 992
-11 16 -34 32 -49 36 -16 3 -41 21 -59 43 -37 47 -69 55 -153 40 -66 -12 -223
-54 -272 -73 -52 -20 -56 -45 -56 -385 0 -276 -2 -311 -17 -323 -12 -10 -62
-15 -195 -17 -149 -3 -182 -1 -202 12 l-24 15 -4 318 c-3 283 -5 321 -21 344
-23 34 -40 42 -177 78 -121 32 -205 44 -230 34z m90 -33 c19 -5 88 -22 154
-38 65 -17 124 -36 132 -44 12 -11 15 -73 17 -331 2 -275 0 -318 -14 -332 -14
-14 -17 -13 -39 10 -32 34 -39 101 -39 376 l-1 216 -57 16 c-32 9 -83 21 -113
27 -93 18 -135 36 -138 60 -8 49 20 61 98 40z m1215 -28 c0 -30 -4 -35 -40
-48 -22 -7 -86 -23 -142 -35 -57 -12 -108 -28 -114 -35 -8 -9 -12 -99 -13
-281 -2 -274 -6 -303 -42 -317 -42 -16 -44 1 -44 328 0 368 -10 340 135 375
50 12 115 28 145 36 30 8 69 13 85 12 27 -2 30 -5 30 -35z m-1363 -965 c2
-485 1 -890 -1 -900 -2 -10 -15 -24 -30 -31 -28 -15 -39 -9 -55 29 -10 22 -9
1674 1 1743 6 47 33 68 65 51 17 -9 18 -65 20 -892z m1499 853 c4 -19 9 -420
11 -890 3 -845 3 -855 -17 -872 -11 -10 -27 -18 -35 -19 -8 0 -4 -5 10 -9 21
-7 22 -8 5 -9 -12 -1 -27 5 -33 11 -10 10 -15 10 -23 -2 -7 -10 -8 0 -4 35 3
28 8 437 11 910 2 473 7 866 9 873 3 8 16 12 32 10 22 -2 29 -10 34 -38z
m-1356 9 c44 -12 100 -25 124 -29 23 -4 47 -13 52 -21 5 -8 9 -131 9 -275 0
-254 1 -262 23 -294 14 -21 35 -37 56 -43 19 -4 163 -7 321 -5 319 3 309 1
341 73 16 35 19 70 19 275 0 263 4 279 60 292 202 45 209 46 224 29 12 -14 15
-146 18 -893 2 -519 -1 -874 -6 -871 -5 4 -15 -2 -22 -11 -12 -16 -19 -16
-117 8 -58 14 -111 26 -119 26 -35 0 -41 43 -42 304 -1 241 -2 256 -22 283
-11 15 -36 36 -55 46 -31 17 -57 18 -304 14 -155 -3 -281 -9 -296 -15 -15 -6
-37 -25 -49 -42 -21 -30 -22 -37 -21 -294 l2 -264 -36 -21 c-19 -11 -81 -30
-138 -41 -94 -19 -103 -19 -114 -4 -6 9 -16 13 -21 10 -6 -3 -8 25 -6 72 2 42
6 437 8 877 2 440 7 808 11 818 9 21 3 21 100 -4z"/>
</g>
</svg>
